<svg xmlns="http://www.w3.org/2000/svg" viewBox="0 0 200 200" fill="none">
  <!-- Background -->
  <rect width="200" height="200" rx="16" fill="#F0FDF4"/>

  <!-- Top-left finder pattern -->
  <rect x="20" y="20" width="56" height="56" rx="6" fill="#10B981"/>
  <rect x="28" y="28" width="40" height="40" rx="4" fill="#F0FDF4"/>
  <rect x="36" y="36" width="24" height="24" rx="3" fill="#10B981"/>

  <!-- Top-right finder pattern -->
  <rect x="124" y="20" width="56" height="56" rx="6" fill="#10B981"/>
  <rect x="132" y="28" width="40" height="40" rx="4" fill="#F0FDF4"/>
  <rect x="140" y="36" width="24" height="24" rx="3" fill="#10B981"/>

  <!-- Bottom-left finder pattern -->
  <rect x="20" y="124" width="56" height="56" rx="6" fill="#10B981"/>
  <rect x="28" y="132" width="40" height="40" rx="4" fill="#F0FDF4"/>
  <rect x="36" y="140" width="24" height="24" rx="3" fill="#10B981"/>

  <!-- Data modules (timing + data area) -->
  <!-- Row 1 -->
  <rect x="88" y="20" width="8" height="8" rx="2" fill="#10B981"/>
  <rect x="104" y="20" width="8" height="8" rx="2" fill="#10B981"/>

  <!-- Row 2 -->
  <rect x="88" y="36" width="8" height="8" rx="2" fill="#10B981"/>
  <rect x="96" y="36" width="8" height="8" rx="2" fill="#10B981"/>
  <rect x="112" y="36" width="8" height="8" rx="2" fill="#10B981"/>

  <!-- Row 3 -->
  <rect x="96" y="52" width="8" height="8" rx="2" fill="#10B981"/>
  <rect x="112" y="52" width="8" height="8" rx="2" fill="#10B981"/>

  <!-- Row 4 -->
  <rect x="88" y="68" width="8" height="8" rx="2" fill="#10B981"/>
  <rect x="104" y="68" width="8" height="8" rx="2" fill="#10B981"/>
  <rect x="112" y="68" width="8" height="8" rx="2" fill="#10B981"/>

  <!-- Middle rows -->
  <rect x="20" y="88" width="8" height="8" rx="2" fill="#10B981"/>
  <rect x="36" y="88" width="8" height="8" rx="2" fill="#10B981"/>
  <rect x="52" y="88" width="8" height="8" rx="2" fill="#10B981"/>
  <rect x="88" y="88" width="8" height="8" rx="2" fill="#10B981"/>
  <rect x="104" y="88" width="8" height="8" rx="2" fill="#10B981"/>
  <rect x="124" y="88" width="8" height="8" rx="2" fill="#10B981"/>
  <rect x="140" y="88" width="8" height="8" rx="2" fill="#10B981"/>
  <rect x="164" y="88" width="8" height="8" rx="2" fill="#10B981"/>

  <rect x="20" y="104" width="8" height="8" rx="2" fill="#10B981"/>
  <rect x="44" y="104" width="8" height="8" rx="2" fill="#10B981"/>
  <rect x="60" y="104" width="8" height="8" rx="2" fill="#10B981"/>
  <rect x="96" y="104" width="8" height="8" rx="2" fill="#10B981"/>
  <rect x="112" y="104" width="8" height="8" rx="2" fill="#10B981"/>
  <rect x="132" y="104" width="8" height="8" rx="2" fill="#10B981"/>
  <rect x="156" y="104" width="8" height="8" rx="2" fill="#10B981"/>

  <rect x="28" y="112" width="8" height="8" rx="2" fill="#10B981"/>
  <rect x="52" y="112" width="8" height="8" rx="2" fill="#10B981"/>
  <rect x="88" y="112" width="8" height="8" rx="2" fill="#10B981"/>
  <rect x="104" y="112" width="8" height="8" rx="2" fill="#10B981"/>
  <rect x="120" y="112" width="8" height="8" rx="2" fill="#10B981"/>
  <rect x="148" y="112" width="8" height="8" rx="2" fill="#10B981"/>
  <rect x="164" y="112" width="8" height="8" rx="2" fill="#10B981"/>

  <!-- Bottom-right data area -->
  <rect x="96" y="132" width="8" height="8" rx="2" fill="#10B981"/>
  <rect x="112" y="132" width="8" height="8" rx="2" fill="#10B981"/>
  <rect x="128" y="132" width="8" height="8" rx="2" fill="#10B981"/>
  <rect x="156" y="132" width="8" height="8" rx="2" fill="#10B981"/>

  <rect x="88" y="148" width="8" height="8" rx="2" fill="#10B981"/>
  <rect x="104" y="148" width="8" height="8" rx="2" fill="#10B981"/>
  <rect x="120" y="148" width="8" height="8" rx="2" fill="#10B981"/>
  <rect x="148" y="148" width="8" height="8" rx="2" fill="#10B981"/>
  <rect x="164" y="148" width="8" height="8" rx="2" fill="#10B981"/>

  <rect x="96" y="164" width="8" height="8" rx="2" fill="#10B981"/>
  <rect x="128" y="164" width="8" height="8" rx="2" fill="#10B981"/>
  <rect x="156" y="164" width="8" height="8" rx="2" fill="#10B981"/>

  <!-- Center logo mark -->
  <rect x="84" y="84" width="32" height="32" rx="6" fill="white"/>
  <rect x="87" y="87" width="26" height="26" rx="5" fill="#10B981"/>
  <path d="M93 96h14M93 100h10M93 104h12" stroke="white" stroke-width="2" stroke-linecap="round"/>
</svg>
